<svg width="732.0" height="2156.0" viewBox="0 0 732.0 2156.0" xmlns="http://www.w3.org/2000/svg">
<style>/* font and background color specifications */
svg {
    font-family: SFMono-Regular,Consolas,Liberation Mono,Menlo,monospace;
    font-size: 14px;
    font-kerning: normal;
    text-rendering: optimizeLegibility;
    fill: #24292e;
}

/* default key styling */
rect {
    fill: #f6f8fa;
    stroke: #c9cccf;
    stroke-width: 1;
}

/* color accent for combo boxes */
rect.combo {
    fill: #cdf;
}

/* color accent for held keys */
rect.held, rect.combo.held {
    fill: #fdd;
}

/* color accent for ghost (optional) keys */
rect.ghost, rect.combo.ghost {
    fill: #ddd;
}

text {
    text-anchor: middle;
    dominant-baseline: middle;
}

/* styling for layer labels */
text.label {
    font-weight: bold;
    text-anchor: start;
    stroke: white;
    stroke-width: 2;
    paint-order: stroke;
}

/* styling for combo tap, and key hold/shifted label text */
text.combo, text.hold, text.shifted {
    font-size: 11px;
}

text.hold {
    text-anchor: middle;
    dominant-baseline: auto;
}

text.shifted {
    text-anchor: middle;
    dominant-baseline: hanging;
}

/* styling for hold/shifted label text in combo box */
text.combo.hold, text.combo.shifted {
    font-size: 8px;
}

/* styling for combo dendrons */
path {
    stroke-width: 1;
    stroke: gray;
    fill: none;
}
</style>
<g class="layer-base">
<text x="30.0" y="28.0" class="label">base:</text>
<rect rx="6.0" ry="6.0" x="32.0" y="132.48000000000002" width="52.0" height="52.0" class=""/>
<text x="58.0" y="158.48000000000002" class="tap">Q</text>
<rect rx="6.0" ry="6.0" x="88.0" y="97.76" width="52.0" height="52.0" class=""/>
<text x="114.0" y="123.76" class="tap">W</text>
<rect rx="6.0" ry="6.0" x="144.0" y="80.4" width="52.0" height="52.0" class=""/>
<text x="170.0" y="106.4" class="tap">F</text>
<rect rx="6.0" ry="6.0" x="200.0" y="96.08000000000001" width="52.0" height="52.0" class=""/>
<text x="226.0" y="122.08000000000001" class="tap">P</text>
<rect rx="6.0" ry="6.0" x="256.0" y="103.92000000000002" width="52.0" height="52.0" class=""/>
<text x="282.0" y="129.92000000000002" class="tap">B</text>
<rect rx="6.0" ry="6.0" x="424.0" y="103.92000000000002" width="52.0" height="52.0" class=""/>
<text x="450.0" y="129.92000000000002" class="tap">J</text>
<rect rx="6.0" ry="6.0" x="480.0" y="96.08000000000001" width="52.0" height="52.0" class=""/>
<text x="506.0" y="122.08000000000001" class="tap">L</text>
<rect rx="6.0" ry="6.0" x="536.0" y="80.4" width="52.0" height="52.0" class=""/>
<text x="562.0" y="106.4" class="tap">U</text>
<rect rx="6.0" ry="6.0" x="592.0" y="97.76" width="52.0" height="52.0" class=""/>
<text x="618.0" y="123.76" class="tap">Y</text>
<rect rx="6.0" ry="6.0" x="648.0" y="132.48000000000002" width="52.0" height="52.0" class=""/>
<text x="674.0" y="158.48000000000002" class="tap">
<tspan x="674.0" dy="-0.6em">&quot;</tspan><tspan x="674.0" dy="1.2em">&#x27;</tspan></text>
<rect rx="6.0" ry="6.0" x="32.0" y="188.48" width="52.0" height="52.0" class=""/>
<text x="58.0" y="214.48" class="tap">A</text>
<text x="58.0" y="238.48" class="hold">LGUI</text>
<rect rx="6.0" ry="6.0" x="88.0" y="153.76" width="52.0" height="52.0" class=""/>
<text x="114.0" y="179.76" class="tap">R</text>
<text x="114.0" y="203.76" class="hold">LALT</text>
<rect rx="6.0" ry="6.0" x="144.0" y="136.4" width="52.0" height="52.0" class=""/>
<text x="170.0" y="162.4" class="tap">S</text>
<text x="170.0" y="186.4" class="hold">LCTRL</text>
<rect rx="6.0" ry="6.0" x="200.0" y="152.08" width="52.0" height="52.0" class=""/>
<text x="226.0" y="178.08" class="tap">T</text>
<text x="226.0" y="202.08" class="hold">LSHFT</text>
<rect rx="6.0" ry="6.0" x="256.0" y="159.92000000000002" width="52.0" height="52.0" class=""/>
<text x="282.0" y="185.92000000000002" class="tap">G</text>
<rect rx="6.0" ry="6.0" x="424.0" y="159.92000000000002" width="52.0" height="52.0" class=""/>
<text x="450.0" y="185.92000000000002" class="tap">M</text>
<rect rx="6.0" ry="6.0" x="480.0" y="152.08" width="52.0" height="52.0" class=""/>
<text x="506.0" y="178.08" class="tap">N</text>
<text x="506.0" y="202.08" class="hold">RSHFT</text>
<rect rx="6.0" ry="6.0" x="536.0" y="136.4" width="52.0" height="52.0" class=""/>
<text x="562.0" y="162.4" class="tap">E</text>
<text x="562.0" y="186.4" class="hold">LCTRL</text>
<rect rx="6.0" ry="6.0" x="592.0" y="153.76" width="52.0" height="52.0" class=""/>
<text x="618.0" y="179.76" class="tap">I</text>
<text x="618.0" y="203.76" class="hold">LALT</text>
<rect rx="6.0" ry="6.0" x="648.0" y="188.48" width="52.0" height="52.0" class=""/>
<text x="674.0" y="214.48" class="tap">O</text>
<text x="674.0" y="238.48" class="hold">APP</text>
<rect rx="6.0" ry="6.0" x="32.0" y="244.48000000000002" width="52.0" height="52.0" class=""/>
<text x="58.0" y="270.48" class="tap">Z</text>
<rect rx="6.0" ry="6.0" x="88.0" y="209.76000000000002" width="52.0" height="52.0" class=""/>
<text x="114.0" y="235.76000000000002" class="tap">X</text>
<rect rx="6.0" ry="6.0" x="144.0" y="192.4" width="52.0" height="52.0" class=""/>
<text x="170.0" y="218.4" class="tap">C</text>
<rect rx="6.0" ry="6.0" x="200.0" y="208.07999999999998" width="52.0" height="52.0" class=""/>
<text x="226.0" y="234.07999999999998" class="tap">D</text>
<rect rx="6.0" ry="6.0" x="256.0" y="215.92" width="52.0" height="52.0" class=""/>
<text x="282.0" y="241.92" class="tap">V</text>
<rect rx="6.0" ry="6.0" x="424.0" y="215.92" width="52.0" height="52.0" class=""/>
<text x="450.0" y="241.92" class="tap">K</text>
<rect rx="6.0" ry="6.0" x="480.0" y="208.07999999999998" width="52.0" height="52.0" class=""/>
<text x="506.0" y="234.07999999999998" class="tap">H</text>
<rect rx="6.0" ry="6.0" x="536.0" y="192.4" width="52.0" height="52.0" class=""/>
<text x="562.0" y="218.4" class="tap">
<tspan x="562.0" dy="-0.6em">;</tspan><tspan x="562.0" dy="1.2em">,</tspan></text>
<rect rx="6.0" ry="6.0" x="592.0" y="209.76000000000002" width="52.0" height="52.0" class=""/>
<text x="618.0" y="235.76000000000002" class="tap">
<tspan x="618.0" dy="-0.6em">:</tspan><tspan x="618.0" dy="1.2em">.</tspan></text>
<rect rx="6.0" ry="6.0" x="648.0" y="244.48000000000002" width="52.0" height="52.0" class=""/>
<text x="674.0" y="270.48" class="tap">
<tspan x="674.0" dy="-0.6em">!</tspan><tspan x="674.0" dy="1.2em">?</tspan></text>
<rect rx="6.0" ry="6.0" x="228.0" y="290.4" width="52.0" height="52.0" class=""/>
<text x="254.0" y="316.4" class="tap">BSPC</text>
<text x="254.0" y="340.4" class="hold">navi</text>
<rect rx="6.0" ry="6.0" x="284.0" y="304.4" width="52.0" height="52.0" class=""/>
<text x="310.0" y="330.4" class="tap">SPACE</text>
<text x="310.0" y="354.4" class="hold">func</text>
<rect rx="6.0" ry="6.0" x="396.0" y="304.4" width="52.0" height="52.0" class=""/>
<text x="422.0" y="330.4" class="tap">0</text>
<text x="422.0" y="354.4" class="hold">nums</text>
<rect rx="6.0" ry="6.0" x="452.0" y="290.4" width="52.0" height="52.0" class=""/>
<text x="478.0" y="316.4" class="tap">TAB</text>
<rect rx="6.0" ry="6.0" x="128.0" y="102.08000000000001" width="28.0" height="26.0" class="combo"/>
<text x="142.0" y="115.08000000000001" class="combo">ESC</text>
<rect rx="6.0" ry="6.0" x="184.0" y="101.24000000000001" width="28.0" height="26.0" class="combo"/>
<text x="198.0" y="114.24000000000001" class="combo">TAB</text>
<path d="M170.0,70.68 h-50.0 a6.0,6.0 0 0 0 -6.0,6.0 v28.41333333333333"/>
<path d="M170.0,70.68 h50.0 a6.0,6.0 0 0 1 6.0,6.0 v26.733333333333338"/>
<rect rx="6.0" ry="6.0" x="156.0" y="57.68000000000001" width="28.0" height="26.0" class="combo"/>
<text x="170.0" y="70.68" class="combo">maus</text>
<rect rx="6.0" ry="6.0" x="184.0" y="157.24" width="28.0" height="26.0" class="combo"/>
<text x="198.0" y="170.24" class="combo">ENTER</text>
<rect rx="6.0" ry="6.0" x="128.0" y="158.08" width="28.0" height="26.0" class="combo"/>
<text x="142.0" y="171.08" class="combo">REPEAT</text>
<path d="M170.0,270.36 h-50.0 a6.0,6.0 0 0 1 -6.0,-6.0 v-9.933333333333326"/>
<path d="M170.0,270.36 h50.0 a6.0,6.0 0 0 0 6.0,-6.0 v-11.613333333333362"/>
<rect rx="6.0" ry="6.0" x="156.0" y="257.36" width="28.0" height="26.0" class="combo"/>
<text x="170.0" y="270.36" class="combo">CUT</text>
<rect rx="6.0" ry="6.0" x="128.0" y="214.08" width="28.0" height="26.0" class="combo"/>
<text x="142.0" y="227.08" class="combo">COPY</text>
<rect rx="6.0" ry="6.0" x="184.0" y="213.23999999999998" width="28.0" height="26.0" class="combo"/>
<text x="198.0" y="226.23999999999998" class="combo">PASTE</text>
<rect rx="6.0" ry="6.0" x="520.0" y="101.24000000000001" width="28.0" height="26.0" class="combo"/>
<text x="534.0" y="114.24000000000001" class="combo">{</text>
<rect rx="6.0" ry="6.0" x="576.0" y="102.08000000000001" width="28.0" height="26.0" class="combo"/>
<text x="590.0" y="115.08000000000001" class="combo">}</text>
<rect rx="6.0" ry="6.0" x="520.0" y="157.24" width="28.0" height="26.0" class="combo"/>
<text x="534.0" y="170.24" class="combo">(</text>
<rect rx="6.0" ry="6.0" x="576.0" y="158.08" width="28.0" height="26.0" class="combo"/>
<text x="590.0" y="171.08" class="combo">)</text>
<rect rx="6.0" ry="6.0" x="520.0" y="213.23999999999998" width="28.0" height="26.0" class="combo"/>
<text x="534.0" y="226.23999999999998" class="combo">[</text>
<rect rx="6.0" ry="6.0" x="576.0" y="214.08" width="28.0" height="26.0" class="combo"/>
<text x="590.0" y="227.08" class="combo">]</text>
<rect rx="6.0" ry="6.0" x="100.0" y="138.76" width="28.0" height="26.0" class="combo"/>
<text x="114.0" y="151.76" class="combo">@</text>
<rect rx="6.0" ry="6.0" x="156.0" y="121.4" width="28.0" height="26.0" class="combo"/>
<text x="170.0" y="134.4" class="combo">#</text>
<rect rx="6.0" ry="6.0" x="212.0" y="137.08" width="28.0" height="26.0" class="combo"/>
<text x="226.0" y="150.08" class="combo">$</text>
<rect rx="6.0" ry="6.0" x="268.0" y="144.92000000000002" width="28.0" height="26.0" class="combo"/>
<text x="282.0" y="157.92000000000002" class="combo">%</text>
<rect rx="6.0" ry="6.0" x="436.0" y="144.92000000000002" width="28.0" height="26.0" class="combo"/>
<text x="450.0" y="157.92000000000002" class="combo">^</text>
<rect rx="6.0" ry="6.0" x="492.0" y="137.08" width="28.0" height="26.0" class="combo"/>
<text x="506.0" y="150.08" class="combo">+</text>
<rect rx="6.0" ry="6.0" x="548.0" y="121.4" width="28.0" height="26.0" class="combo"/>
<text x="562.0" y="134.4" class="combo">*</text>
<rect rx="6.0" ry="6.0" x="604.0" y="138.76" width="28.0" height="26.0" class="combo"/>
<text x="618.0" y="151.76" class="combo">&amp;</text>
<rect rx="6.0" ry="6.0" x="100.0" y="194.76000000000002" width="28.0" height="26.0" class="combo"/>
<text x="114.0" y="207.76000000000002" class="combo">`</text>
<rect rx="6.0" ry="6.0" x="156.0" y="177.4" width="28.0" height="26.0" class="combo"/>
<text x="170.0" y="190.4" class="combo">\</text>
<rect rx="6.0" ry="6.0" x="212.0" y="193.07999999999998" width="28.0" height="26.0" class="combo"/>
<text x="226.0" y="206.07999999999998" class="combo">=</text>
<rect rx="6.0" ry="6.0" x="268.0" y="200.92" width="28.0" height="26.0" class="combo"/>
<text x="282.0" y="213.92" class="combo">~</text>
<rect rx="6.0" ry="6.0" x="436.0" y="200.92" width="28.0" height="26.0" class="combo"/>
<text x="450.0" y="213.92" class="combo">_</text>
<rect rx="6.0" ry="6.0" x="492.0" y="193.07999999999998" width="28.0" height="26.0" class="combo"/>
<text x="506.0" y="206.07999999999998" class="combo">-</text>
<rect rx="6.0" ry="6.0" x="548.0" y="177.4" width="28.0" height="26.0" class="combo"/>
<text x="562.0" y="190.4" class="combo">/</text>
<rect rx="6.0" ry="6.0" x="604.0" y="194.76000000000002" width="28.0" height="26.0" class="combo"/>
<text x="618.0" y="207.76000000000002" class="combo">|</text>
</g>
<g class="layer-navi">
<text x="30.0" y="392.0" class="label">navi:</text>
<rect rx="6.0" ry="6.0" x="32.0" y="496.48" width="52.0" height="52.0" class=""/>
<rect rx="6.0" ry="6.0" x="88.0" y="461.76" width="52.0" height="52.0" class=""/>
<rect rx="6.0" ry="6.0" x="144.0" y="444.4" width="52.0" height="52.0" class=""/>
<text x="170.0" y="470.4" class="tap">LS(TAB)</text>
<rect rx="6.0" ry="6.0" x="200.0" y="460.08" width="52.0" height="52.0" class=""/>
<text x="226.0" y="486.08" class="tap">&amp;swap</text>
<rect rx="6.0" ry="6.0" x="256.0" y="467.91999999999996" width="52.0" height="52.0" class=""/>
<rect rx="6.0" ry="6.0" x="424.0" y="467.91999999999996" width="52.0" height="52.0" class=""/>
<text x="450.0" y="493.91999999999996" class="tap">
<tspan x="450.0" dy="-0.6em">PG</tspan><tspan x="450.0" dy="1.2em">UP</tspan></text>
<rect rx="6.0" ry="6.0" x="480.0" y="460.08" width="52.0" height="52.0" class=""/>
<text x="506.0" y="486.08" class="tap">BSPC</text>
<text x="506.0" y="510.08" class="hold">WD&lt;-DEL</text>
<rect rx="6.0" ry="6.0" x="536.0" y="444.4" width="52.0" height="52.0" class=""/>
<text x="562.0" y="470.4" class="tap">UP</text>
<text x="562.0" y="494.4" class="hold">HOME</text>
<rect rx="6.0" ry="6.0" x="592.0" y="461.76" width="52.0" height="52.0" class=""/>
<text x="618.0" y="487.76" class="tap">DEL</text>
<text x="618.0" y="511.76" class="hold">DEL-&gt;WD</text>
<rect rx="6.0" ry="6.0" x="648.0" y="496.48" width="52.0" height="52.0" class=""/>
<rect rx="6.0" ry="6.0" x="32.0" y="552.48" width="52.0" height="52.0" class=""/>
<text x="58.0" y="578.48" class="tap">LGUI</text>
<text x="58.0" y="602.48" class="hold">sticky</text>
<rect rx="6.0" ry="6.0" x="88.0" y="517.76" width="52.0" height="52.0" class=""/>
<text x="114.0" y="543.76" class="tap">LALT</text>
<text x="114.0" y="567.76" class="hold">sticky</text>
<rect rx="6.0" ry="6.0" x="144.0" y="500.4" width="52.0" height="52.0" class=""/>
<text x="170.0" y="526.4" class="tap">LCTRL</text>
<text x="170.0" y="550.4" class="hold">sticky</text>
<rect rx="6.0" ry="6.0" x="200.0" y="516.0799999999999" width="52.0" height="52.0" class=""/>
<text x="226.0" y="542.0799999999999" class="tap">LSHFT</text>
<text x="226.0" y="566.0799999999999" class="hold">sticky</text>
<rect rx="6.0" ry="6.0" x="256.0" y="523.92" width="52.0" height="52.0" class=""/>
<rect rx="6.0" ry="6.0" x="424.0" y="523.92" width="52.0" height="52.0" class=""/>
<text x="450.0" y="549.92" class="tap">
<tspan x="450.0" dy="-0.6em">PG</tspan><tspan x="450.0" dy="1.2em">DN</tspan></text>
<rect rx="6.0" ry="6.0" x="480.0" y="516.0799999999999" width="52.0" height="52.0" class=""/>
<text x="506.0" y="542.0799999999999" class="tap">LEFT</text>
<text x="506.0" y="566.0799999999999" class="hold">|&lt;-</text>
<rect rx="6.0" ry="6.0" x="536.0" y="500.4" width="52.0" height="52.0" class=""/>
<text x="562.0" y="526.4" class="tap">DOWN</text>
<text x="562.0" y="550.4" class="hold">END</text>
<rect rx="6.0" ry="6.0" x="592.0" y="517.76" width="52.0" height="52.0" class=""/>
<text x="618.0" y="543.76" class="tap">RIGHT</text>
<text x="618.0" y="567.76" class="hold">-&gt;|</text>
<rect rx="6.0" ry="6.0" x="648.0" y="552.48" width="52.0" height="52.0" class=""/>
<text x="674.0" y="578.48" class="tap">ENTER</text>
<rect rx="6.0" ry="6.0" x="32.0" y="608.48" width="52.0" height="52.0" class=""/>
<rect rx="6.0" ry="6.0" x="88.0" y="573.76" width="52.0" height="52.0" class=""/>
<rect rx="6.0" ry="6.0" x="144.0" y="556.4" width="52.0" height="52.0" class=""/>
<rect rx="6.0" ry="6.0" x="200.0" y="572.0799999999999" width="52.0" height="52.0" class=""/>
<rect rx="6.0" ry="6.0" x="256.0" y="579.92" width="52.0" height="52.0" class=""/>
<rect rx="6.0" ry="6.0" x="424.0" y="579.92" width="52.0" height="52.0" class=""/>
<text x="450.0" y="605.92" class="tap">INS</text>
<rect rx="6.0" ry="6.0" x="480.0" y="572.0799999999999" width="52.0" height="52.0" class=""/>
<text x="506.0" y="598.0799999999999" class="tap">TAB</text>
<rect rx="6.0" ry="6.0" x="536.0" y="556.4" width="52.0" height="52.0" class=""/>
<text x="562.0" y="582.4" class="tap">&lt;</text>
<rect rx="6.0" ry="6.0" x="592.0" y="573.76" width="52.0" height="52.0" class=""/>
<text x="618.0" y="599.76" class="tap">&gt;</text>
<rect rx="6.0" ry="6.0" x="648.0" y="608.48" width="52.0" height="52.0" class=""/>
<rect rx="6.0" ry="6.0" x="228.0" y="654.4" width="52.0" height="52.0" class="held"/>
<rect rx="6.0" ry="6.0" x="284.0" y="668.4" width="52.0" height="52.0" class=""/>
<rect rx="6.0" ry="6.0" x="396.0" y="668.4" width="52.0" height="52.0" class=""/>
<rect rx="6.0" ry="6.0" x="452.0" y="654.4" width="52.0" height="52.0" class=""/>
<text x="478.0" y="680.4" class="tap">CANCEL</text>
<rect rx="6.0" ry="6.0" x="128.0" y="466.08" width="28.0" height="26.0" class="combo"/>
<text x="142.0" y="479.08" class="combo">ESC</text>
<rect rx="6.0" ry="6.0" x="184.0" y="465.24" width="28.0" height="26.0" class="combo"/>
<text x="198.0" y="478.24" class="combo">TAB</text>
<path d="M170.0,434.67999999999995 h-50.0 a6.0,6.0 0 0 0 -6.0,6.0 v28.413333333333373"/>
<path d="M170.0,434.67999999999995 h50.0 a6.0,6.0 0 0 1 6.0,6.0 v26.733333333333366"/>
<rect rx="6.0" ry="6.0" x="156.0" y="421.67999999999995" width="28.0" height="26.0" class="combo"/>
<text x="170.0" y="434.67999999999995" class="combo">maus</text>
<rect rx="6.0" ry="6.0" x="184.0" y="521.24" width="28.0" height="26.0" class="combo"/>
<text x="198.0" y="534.24" class="combo">ENTER</text>
<rect rx="6.0" ry="6.0" x="128.0" y="522.0799999999999" width="28.0" height="26.0" class="combo"/>
<text x="142.0" y="535.0799999999999" class="combo">REPEAT</text>
<path d="M170.0,634.36 h-50.0 a6.0,6.0 0 0 1 -6.0,-6.0 v-9.933333333333355"/>
<path d="M170.0,634.36 h50.0 a6.0,6.0 0 0 0 6.0,-6.0 v-11.613333333333419"/>
<rect rx="6.0" ry="6.0" x="156.0" y="621.36" width="28.0" height="26.0" class="combo"/>
<text x="170.0" y="634.36" class="combo">CUT</text>
<rect rx="6.0" ry="6.0" x="128.0" y="578.0799999999999" width="28.0" height="26.0" class="combo"/>
<text x="142.0" y="591.0799999999999" class="combo">COPY</text>
<rect rx="6.0" ry="6.0" x="184.0" y="577.24" width="28.0" height="26.0" class="combo"/>
<text x="198.0" y="590.24" class="combo">PASTE</text>
<rect rx="6.0" ry="6.0" x="520.0" y="465.24" width="28.0" height="26.0" class="combo"/>
<text x="534.0" y="478.24" class="combo">{</text>
<rect rx="6.0" ry="6.0" x="576.0" y="466.08" width="28.0" height="26.0" class="combo"/>
<text x="590.0" y="479.08" class="combo">}</text>
<rect rx="6.0" ry="6.0" x="520.0" y="521.24" width="28.0" height="26.0" class="combo"/>
<text x="534.0" y="534.24" class="combo">(</text>
<rect rx="6.0" ry="6.0" x="576.0" y="522.0799999999999" width="28.0" height="26.0" class="combo"/>
<text x="590.0" y="535.0799999999999" class="combo">)</text>
<rect rx="6.0" ry="6.0" x="520.0" y="577.24" width="28.0" height="26.0" class="combo"/>
<text x="534.0" y="590.24" class="combo">[</text>
<rect rx="6.0" ry="6.0" x="576.0" y="578.0799999999999" width="28.0" height="26.0" class="combo"/>
<text x="590.0" y="591.0799999999999" class="combo">]</text>
<rect rx="6.0" ry="6.0" x="100.0" y="502.76" width="28.0" height="26.0" class="combo"/>
<text x="114.0" y="515.76" class="combo">@</text>
<rect rx="6.0" ry="6.0" x="156.0" y="485.4" width="28.0" height="26.0" class="combo"/>
<text x="170.0" y="498.4" class="combo">#</text>
<rect rx="6.0" ry="6.0" x="212.0" y="501.0799999999999" width="28.0" height="26.0" class="combo"/>
<text x="226.0" y="514.0799999999999" class="combo">$</text>
<rect rx="6.0" ry="6.0" x="268.0" y="508.91999999999996" width="28.0" height="26.0" class="combo"/>
<text x="282.0" y="521.92" class="combo">%</text>
<rect rx="6.0" ry="6.0" x="436.0" y="508.91999999999996" width="28.0" height="26.0" class="combo"/>
<text x="450.0" y="521.92" class="combo">^</text>
<rect rx="6.0" ry="6.0" x="492.0" y="501.0799999999999" width="28.0" height="26.0" class="combo"/>
<text x="506.0" y="514.0799999999999" class="combo">+</text>
<rect rx="6.0" ry="6.0" x="548.0" y="485.4" width="28.0" height="26.0" class="combo"/>
<text x="562.0" y="498.4" class="combo">*</text>
<rect rx="6.0" ry="6.0" x="604.0" y="502.76" width="28.0" height="26.0" class="combo"/>
<text x="618.0" y="515.76" class="combo">&amp;</text>
<rect rx="6.0" ry="6.0" x="100.0" y="558.76" width="28.0" height="26.0" class="combo"/>
<text x="114.0" y="571.76" class="combo">`</text>
<rect rx="6.0" ry="6.0" x="156.0" y="541.4" width="28.0" height="26.0" class="combo"/>
<text x="170.0" y="554.4" class="combo">\</text>
<rect rx="6.0" ry="6.0" x="212.0" y="557.0799999999999" width="28.0" height="26.0" class="combo"/>
<text x="226.0" y="570.0799999999999" class="combo">=</text>
<rect rx="6.0" ry="6.0" x="268.0" y="564.92" width="28.0" height="26.0" class="combo"/>
<text x="282.0" y="577.92" class="combo">~</text>
<rect rx="6.0" ry="6.0" x="436.0" y="564.92" width="28.0" height="26.0" class="combo"/>
<text x="450.0" y="577.92" class="combo">_</text>
<rect rx="6.0" ry="6.0" x="492.0" y="557.0799999999999" width="28.0" height="26.0" class="combo"/>
<text x="506.0" y="570.0799999999999" class="combo">-</text>
<rect rx="6.0" ry="6.0" x="548.0" y="541.4" width="28.0" height="26.0" class="combo"/>
<text x="562.0" y="554.4" class="combo">/</text>
<rect rx="6.0" ry="6.0" x="604.0" y="558.76" width="28.0" height="26.0" class="combo"/>
<text x="618.0" y="571.76" class="combo">|</text>
</g>
<g class="layer-maus">
<text x="30.0" y="756.0" class="label">maus:</text>
<rect rx="6.0" ry="6.0" x="32.0" y="838.08" width="52.0" height="52.0" class=""/>
<rect rx="6.0" ry="6.0" x="88.0" y="803.36" width="52.0" height="52.0" class=""/>
<text x="114.0" y="829.36" class="tap">
<tspan x="114.0" dy="-0.6em">LEFT</tspan><tspan x="114.0" dy="1.2em">BUTTON</tspan></text>
<rect rx="6.0" ry="6.0" x="144.0" y="786.0" width="52.0" height="52.0" class=""/>
<text x="170.0" y="812.0" class="tap">
<tspan x="170.0" dy="-0.6em">MIDDLE</tspan><tspan x="170.0" dy="1.2em">BUTTON</tspan></text>
<rect rx="6.0" ry="6.0" x="200.0" y="801.68" width="52.0" height="52.0" class=""/>
<text x="226.0" y="827.68" class="tap">
<tspan x="226.0" dy="-0.6em">RIGHT</tspan><tspan x="226.0" dy="1.2em">BUTTON</tspan></text>
<rect rx="6.0" ry="6.0" x="256.0" y="809.52" width="52.0" height="52.0" class=""/>
<rect rx="6.0" ry="6.0" x="424.0" y="809.52" width="52.0" height="52.0" class=""/>
<rect rx="6.0" ry="6.0" x="480.0" y="801.68" width="52.0" height="52.0" class=""/>
<text x="506.0" y="827.68" class="tap">
<tspan x="506.0" dy="-0.6em">SCRLL</tspan><tspan x="506.0" dy="1.2em">UP</tspan></text>
<rect rx="6.0" ry="6.0" x="536.0" y="786.0" width="52.0" height="52.0" class=""/>
<text x="562.0" y="812.0" class="tap">
<tspan x="562.0" dy="-0.6em">MAUS</tspan><tspan x="562.0" dy="1.2em">UP</tspan></text>
<rect rx="6.0" ry="6.0" x="592.0" y="803.36" width="52.0" height="52.0" class=""/>
<text x="618.0" y="829.36" class="tap">
<tspan x="618.0" dy="-0.6em">SCRLL</tspan><tspan x="618.0" dy="1.2em">DOWN</tspan></text>
<rect rx="6.0" ry="6.0" x="648.0" y="838.08" width="52.0" height="52.0" class=""/>
<rect rx="6.0" ry="6.0" x="32.0" y="894.0799999999999" width="52.0" height="52.0" class=""/>
<rect rx="6.0" ry="6.0" x="88.0" y="859.36" width="52.0" height="52.0" class=""/>
<rect rx="6.0" ry="6.0" x="144.0" y="842.0" width="52.0" height="52.0" class=""/>
<rect rx="6.0" ry="6.0" x="200.0" y="857.6800000000001" width="52.0" height="52.0" class=""/>
<rect rx="6.0" ry="6.0" x="256.0" y="865.52" width="52.0" height="52.0" class=""/>
<rect rx="6.0" ry="6.0" x="424.0" y="865.52" width="52.0" height="52.0" class=""/>
<text x="450.0" y="891.52" class="tap">
<tspan x="450.0" dy="-0.6em">SCRLL</tspan><tspan x="450.0" dy="1.2em">LEFT</tspan></text>
<rect rx="6.0" ry="6.0" x="480.0" y="857.6800000000001" width="52.0" height="52.0" class=""/>
<text x="506.0" y="883.6800000000001" class="tap">
<tspan x="506.0" dy="-0.6em">MAUS</tspan><tspan x="506.0" dy="1.2em">LEFT</tspan></text>
<rect rx="6.0" ry="6.0" x="536.0" y="842.0" width="52.0" height="52.0" class=""/>
<text x="562.0" y="868.0" class="tap">
<tspan x="562.0" dy="-0.6em">MAUS</tspan><tspan x="562.0" dy="1.2em">DOWN</tspan></text>
<rect rx="6.0" ry="6.0" x="592.0" y="859.36" width="52.0" height="52.0" class=""/>
<text x="618.0" y="885.36" class="tap">
<tspan x="618.0" dy="-0.6em">MAUS</tspan><tspan x="618.0" dy="1.2em">RIGHT</tspan></text>
<rect rx="6.0" ry="6.0" x="648.0" y="894.0799999999999" width="52.0" height="52.0" class=""/>
<text x="674.0" y="920.0799999999999" class="tap">
<tspan x="674.0" dy="-0.6em">SCRLL</tspan><tspan x="674.0" dy="1.2em">RIGHT</tspan></text>
<rect rx="6.0" ry="6.0" x="32.0" y="950.08" width="52.0" height="52.0" class=""/>
<rect rx="6.0" ry="6.0" x="88.0" y="915.36" width="52.0" height="52.0" class=""/>
<rect rx="6.0" ry="6.0" x="144.0" y="898.0" width="52.0" height="52.0" class=""/>
<rect rx="6.0" ry="6.0" x="200.0" y="913.68" width="52.0" height="52.0" class=""/>
<rect rx="6.0" ry="6.0" x="256.0" y="921.52" width="52.0" height="52.0" class=""/>
<rect rx="6.0" ry="6.0" x="424.0" y="921.52" width="52.0" height="52.0" class=""/>
<rect rx="6.0" ry="6.0" x="480.0" y="913.68" width="52.0" height="52.0" class=""/>
<rect rx="6.0" ry="6.0" x="536.0" y="898.0" width="52.0" height="52.0" class=""/>
<rect rx="6.0" ry="6.0" x="592.0" y="915.36" width="52.0" height="52.0" class=""/>
<rect rx="6.0" ry="6.0" x="648.0" y="950.08" width="52.0" height="52.0" class=""/>
<rect rx="6.0" ry="6.0" x="228.0" y="996.0" width="52.0" height="52.0" class=""/>
<rect rx="6.0" ry="6.0" x="284.0" y="1010.0" width="52.0" height="52.0" class=""/>
<rect rx="6.0" ry="6.0" x="396.0" y="1010.0" width="52.0" height="52.0" class=""/>
<text x="422.0" y="1036.0" class="tap">
<tspan x="422.0" dy="-0.6em">LEFT</tspan><tspan x="422.0" dy="1.2em">BUTTON</tspan></text>
<rect rx="6.0" ry="6.0" x="452.0" y="996.0" width="52.0" height="52.0" class=""/>
<text x="478.0" y="1022.0" class="tap">
<tspan x="478.0" dy="-0.6em">RIGHT</tspan><tspan x="478.0" dy="1.2em">BUTTON</tspan></text>
</g>
<g class="layer-func">
<text x="30.0" y="1092.0" class="label">func:</text>
<rect rx="6.0" ry="6.0" x="32.0" y="1174.08" width="52.0" height="52.0" class=""/>
<rect rx="6.0" ry="6.0" x="88.0" y="1139.36" width="52.0" height="52.0" class=""/>
<text x="114.0" y="1165.36" class="tap">F7</text>
<rect rx="6.0" ry="6.0" x="144.0" y="1122.0" width="52.0" height="52.0" class=""/>
<text x="170.0" y="1148.0" class="tap">F8</text>
<rect rx="6.0" ry="6.0" x="200.0" y="1137.68" width="52.0" height="52.0" class=""/>
<text x="226.0" y="1163.68" class="tap">F9</text>
<rect rx="6.0" ry="6.0" x="256.0" y="1145.52" width="52.0" height="52.0" class=""/>
<text x="282.0" y="1171.52" class="tap">F10</text>
<rect rx="6.0" ry="6.0" x="424.0" y="1145.52" width="52.0" height="52.0" class=""/>
<text x="450.0" y="1171.52" class="tap">PP</text>
<rect rx="6.0" ry="6.0" x="480.0" y="1137.68" width="52.0" height="52.0" class=""/>
<text x="506.0" y="1163.68" class="tap">MUTE</text>
<rect rx="6.0" ry="6.0" x="536.0" y="1122.0" width="52.0" height="52.0" class=""/>
<text x="562.0" y="1148.0" class="tap">
<tspan x="562.0" dy="-0.6em">VOL</tspan><tspan x="562.0" dy="1.2em">DN</tspan></text>
<rect rx="6.0" ry="6.0" x="592.0" y="1139.36" width="52.0" height="52.0" class=""/>
<text x="618.0" y="1165.36" class="tap">
<tspan x="618.0" dy="-0.6em">VOL</tspan><tspan x="618.0" dy="1.2em">UP</tspan></text>
<rect rx="6.0" ry="6.0" x="648.0" y="1174.08" width="52.0" height="52.0" class=""/>
<rect rx="6.0" ry="6.0" x="32.0" y="1230.08" width="52.0" height="52.0" class=""/>
<rect rx="6.0" ry="6.0" x="88.0" y="1195.36" width="52.0" height="52.0" class=""/>
<text x="114.0" y="1221.36" class="tap">F4</text>
<rect rx="6.0" ry="6.0" x="144.0" y="1178.0" width="52.0" height="52.0" class=""/>
<text x="170.0" y="1204.0" class="tap">F5</text>
<rect rx="6.0" ry="6.0" x="200.0" y="1193.68" width="52.0" height="52.0" class=""/>
<text x="226.0" y="1219.68" class="tap">F6</text>
<rect rx="6.0" ry="6.0" x="256.0" y="1201.52" width="52.0" height="52.0" class=""/>
<text x="282.0" y="1227.52" class="tap">F11</text>
<rect rx="6.0" ry="6.0" x="424.0" y="1201.52" width="52.0" height="52.0" class=""/>
<text x="450.0" y="1227.52" class="tap">
<tspan x="450.0" dy="-0.6em">BRI</tspan><tspan x="450.0" dy="1.2em">MIN</tspan></text>
<rect rx="6.0" ry="6.0" x="480.0" y="1193.68" width="52.0" height="52.0" class=""/>
<text x="506.0" y="1219.68" class="tap">
<tspan x="506.0" dy="-0.6em">BRI</tspan><tspan x="506.0" dy="1.2em">DN</tspan></text>
<rect rx="6.0" ry="6.0" x="536.0" y="1178.0" width="52.0" height="52.0" class=""/>
<text x="562.0" y="1204.0" class="tap">
<tspan x="562.0" dy="-0.6em">BRI</tspan><tspan x="562.0" dy="1.2em">UP</tspan></text>
<rect rx="6.0" ry="6.0" x="592.0" y="1195.36" width="52.0" height="52.0" class=""/>
<text x="618.0" y="1221.36" class="tap">
<tspan x="618.0" dy="-0.6em">BRI</tspan><tspan x="618.0" dy="1.2em">MAX</tspan></text>
<rect rx="6.0" ry="6.0" x="648.0" y="1230.08" width="52.0" height="52.0" class=""/>
<rect rx="6.0" ry="6.0" x="32.0" y="1286.08" width="52.0" height="52.0" class=""/>
<rect rx="6.0" ry="6.0" x="88.0" y="1251.3600000000001" width="52.0" height="52.0" class=""/>
<text x="114.0" y="1277.3600000000001" class="tap">F1</text>
<rect rx="6.0" ry="6.0" x="144.0" y="1234.0" width="52.0" height="52.0" class=""/>
<text x="170.0" y="1260.0" class="tap">F2</text>
<rect rx="6.0" ry="6.0" x="200.0" y="1249.68" width="52.0" height="52.0" class=""/>
<text x="226.0" y="1275.68" class="tap">F3</text>
<rect rx="6.0" ry="6.0" x="256.0" y="1257.52" width="52.0" height="52.0" class=""/>
<text x="282.0" y="1283.52" class="tap">F12</text>
<rect rx="6.0" ry="6.0" x="424.0" y="1257.52" width="52.0" height="52.0" class=""/>
<rect rx="6.0" ry="6.0" x="480.0" y="1249.68" width="52.0" height="52.0" class=""/>
<rect rx="6.0" ry="6.0" x="536.0" y="1234.0" width="52.0" height="52.0" class=""/>
<rect rx="6.0" ry="6.0" x="592.0" y="1251.3600000000001" width="52.0" height="52.0" class=""/>
<rect rx="6.0" ry="6.0" x="648.0" y="1286.08" width="52.0" height="52.0" class=""/>
<rect rx="6.0" ry="6.0" x="228.0" y="1332.0" width="52.0" height="52.0" class=""/>
<rect rx="6.0" ry="6.0" x="284.0" y="1346.0" width="52.0" height="52.0" class="held"/>
<rect rx="6.0" ry="6.0" x="396.0" y="1346.0" width="52.0" height="52.0" class=""/>
<rect rx="6.0" ry="6.0" x="452.0" y="1332.0" width="52.0" height="52.0" class=""/>
</g>
<g class="layer-nums">
<text x="30.0" y="1428.0" class="label">nums:</text>
<rect rx="6.0" ry="6.0" x="32.0" y="1532.48" width="52.0" height="52.0" class=""/>
<rect rx="6.0" ry="6.0" x="88.0" y="1497.76" width="52.0" height="52.0" class=""/>
<text x="114.0" y="1523.76" class="tap">7</text>
<rect rx="6.0" ry="6.0" x="144.0" y="1480.4" width="52.0" height="52.0" class=""/>
<text x="170.0" y="1506.4" class="tap">8</text>
<rect rx="6.0" ry="6.0" x="200.0" y="1496.0800000000002" width="52.0" height="52.0" class=""/>
<text x="226.0" y="1522.0800000000002" class="tap">9</text>
<rect rx="6.0" ry="6.0" x="256.0" y="1503.92" width="52.0" height="52.0" class=""/>
<rect rx="6.0" ry="6.0" x="424.0" y="1503.92" width="52.0" height="52.0" class=""/>
<rect rx="6.0" ry="6.0" x="480.0" y="1496.0800000000002" width="52.0" height="52.0" class=""/>
<rect rx="6.0" ry="6.0" x="536.0" y="1480.4" width="52.0" height="52.0" class=""/>
<rect rx="6.0" ry="6.0" x="592.0" y="1497.76" width="52.0" height="52.0" class=""/>
<rect rx="6.0" ry="6.0" x="648.0" y="1532.48" width="52.0" height="52.0" class=""/>
<rect rx="6.0" ry="6.0" x="32.0" y="1588.48" width="52.0" height="52.0" class=""/>
<text x="58.0" y="1614.48" class="tap">0</text>
<text x="58.0" y="1638.48" class="hold">LGUI</text>
<rect rx="6.0" ry="6.0" x="88.0" y="1553.76" width="52.0" height="52.0" class=""/>
<text x="114.0" y="1579.76" class="tap">4</text>
<text x="114.0" y="1603.76" class="hold">LALT</text>
<rect rx="6.0" ry="6.0" x="144.0" y="1536.4" width="52.0" height="52.0" class=""/>
<text x="170.0" y="1562.4" class="tap">5</text>
<text x="170.0" y="1586.4" class="hold">LCTRL</text>
<rect rx="6.0" ry="6.0" x="200.0" y="1552.0800000000002" width="52.0" height="52.0" class=""/>
<text x="226.0" y="1578.0800000000002" class="tap">6</text>
<text x="226.0" y="1602.0800000000002" class="hold">LSHFT</text>
<rect rx="6.0" ry="6.0" x="256.0" y="1559.92" width="52.0" height="52.0" class=""/>
<rect rx="6.0" ry="6.0" x="424.0" y="1559.92" width="52.0" height="52.0" class=""/>
<rect rx="6.0" ry="6.0" x="480.0" y="1552.0800000000002" width="52.0" height="52.0" class=""/>
<rect rx="6.0" ry="6.0" x="536.0" y="1536.4" width="52.0" height="52.0" class=""/>
<rect rx="6.0" ry="6.0" x="592.0" y="1553.76" width="52.0" height="52.0" class=""/>
<rect rx="6.0" ry="6.0" x="648.0" y="1588.48" width="52.0" height="52.0" class=""/>
<rect rx="6.0" ry="6.0" x="32.0" y="1644.48" width="52.0" height="52.0" class=""/>
<rect rx="6.0" ry="6.0" x="88.0" y="1609.7600000000002" width="52.0" height="52.0" class=""/>
<text x="114.0" y="1635.7600000000002" class="tap">1</text>
<rect rx="6.0" ry="6.0" x="144.0" y="1592.4" width="52.0" height="52.0" class=""/>
<text x="170.0" y="1618.4" class="tap">2</text>
<rect rx="6.0" ry="6.0" x="200.0" y="1608.0800000000002" width="52.0" height="52.0" class=""/>
<text x="226.0" y="1634.0800000000002" class="tap">3</text>
<rect rx="6.0" ry="6.0" x="256.0" y="1615.92" width="52.0" height="52.0" class=""/>
<rect rx="6.0" ry="6.0" x="424.0" y="1615.92" width="52.0" height="52.0" class=""/>
<rect rx="6.0" ry="6.0" x="480.0" y="1608.0800000000002" width="52.0" height="52.0" class=""/>
<rect rx="6.0" ry="6.0" x="536.0" y="1592.4" width="52.0" height="52.0" class=""/>
<rect rx="6.0" ry="6.0" x="592.0" y="1609.7600000000002" width="52.0" height="52.0" class=""/>
<rect rx="6.0" ry="6.0" x="648.0" y="1644.48" width="52.0" height="52.0" class=""/>
<rect rx="6.0" ry="6.0" x="228.0" y="1690.4" width="52.0" height="52.0" class=""/>
<rect rx="6.0" ry="6.0" x="284.0" y="1704.4" width="52.0" height="52.0" class=""/>
<rect rx="6.0" ry="6.0" x="396.0" y="1704.4" width="52.0" height="52.0" class="held"/>
<rect rx="6.0" ry="6.0" x="452.0" y="1690.4" width="52.0" height="52.0" class=""/>
<rect rx="6.0" ry="6.0" x="128.0" y="1502.0800000000002" width="28.0" height="26.0" class="combo"/>
<text x="142.0" y="1515.0800000000002" class="combo">ESC</text>
<rect rx="6.0" ry="6.0" x="184.0" y="1501.24" width="28.0" height="26.0" class="combo"/>
<text x="198.0" y="1514.24" class="combo">TAB</text>
<path d="M170.0,1470.68 h-50.0 a6.0,6.0 0 0 0 -6.0,6.0 v28.41333333333326"/>
<path d="M170.0,1470.68 h50.0 a6.0,6.0 0 0 1 6.0,6.0 v26.733333333333423"/>
<rect rx="6.0" ry="6.0" x="156.0" y="1457.68" width="28.0" height="26.0" class="combo"/>
<text x="170.0" y="1470.68" class="combo">maus</text>
<rect rx="6.0" ry="6.0" x="184.0" y="1557.24" width="28.0" height="26.0" class="combo"/>
<text x="198.0" y="1570.24" class="combo">ENTER</text>
<rect rx="6.0" ry="6.0" x="128.0" y="1558.0800000000002" width="28.0" height="26.0" class="combo"/>
<text x="142.0" y="1571.0800000000002" class="combo">REPEAT</text>
<path d="M170.0,1670.3600000000001 h-50.0 a6.0,6.0 0 0 1 -6.0,-6.0 v-9.933333333333241"/>
<path d="M170.0,1670.3600000000001 h50.0 a6.0,6.0 0 0 0 6.0,-6.0 v-11.613333333333305"/>
<rect rx="6.0" ry="6.0" x="156.0" y="1657.3600000000001" width="28.0" height="26.0" class="combo"/>
<text x="170.0" y="1670.3600000000001" class="combo">CUT</text>
<rect rx="6.0" ry="6.0" x="128.0" y="1614.0800000000002" width="28.0" height="26.0" class="combo"/>
<text x="142.0" y="1627.0800000000002" class="combo">COPY</text>
<rect rx="6.0" ry="6.0" x="184.0" y="1613.24" width="28.0" height="26.0" class="combo"/>
<text x="198.0" y="1626.24" class="combo">PASTE</text>
<rect rx="6.0" ry="6.0" x="520.0" y="1501.24" width="28.0" height="26.0" class="combo"/>
<text x="534.0" y="1514.24" class="combo">{</text>
<rect rx="6.0" ry="6.0" x="576.0" y="1502.0800000000002" width="28.0" height="26.0" class="combo"/>
<text x="590.0" y="1515.0800000000002" class="combo">}</text>
<rect rx="6.0" ry="6.0" x="520.0" y="1557.24" width="28.0" height="26.0" class="combo"/>
<text x="534.0" y="1570.24" class="combo">(</text>
<rect rx="6.0" ry="6.0" x="576.0" y="1558.0800000000002" width="28.0" height="26.0" class="combo"/>
<text x="590.0" y="1571.0800000000002" class="combo">)</text>
<rect rx="6.0" ry="6.0" x="520.0" y="1613.24" width="28.0" height="26.0" class="combo"/>
<text x="534.0" y="1626.24" class="combo">[</text>
<rect rx="6.0" ry="6.0" x="576.0" y="1614.0800000000002" width="28.0" height="26.0" class="combo"/>
<text x="590.0" y="1627.0800000000002" class="combo">]</text>
<rect rx="6.0" ry="6.0" x="100.0" y="1538.76" width="28.0" height="26.0" class="combo"/>
<text x="114.0" y="1551.76" class="combo">@</text>
<rect rx="6.0" ry="6.0" x="156.0" y="1521.4" width="28.0" height="26.0" class="combo"/>
<text x="170.0" y="1534.4" class="combo">#</text>
<rect rx="6.0" ry="6.0" x="212.0" y="1537.0800000000002" width="28.0" height="26.0" class="combo"/>
<text x="226.0" y="1550.0800000000002" class="combo">$</text>
<rect rx="6.0" ry="6.0" x="268.0" y="1544.92" width="28.0" height="26.0" class="combo"/>
<text x="282.0" y="1557.92" class="combo">%</text>
<rect rx="6.0" ry="6.0" x="436.0" y="1544.92" width="28.0" height="26.0" class="combo"/>
<text x="450.0" y="1557.92" class="combo">^</text>
<rect rx="6.0" ry="6.0" x="492.0" y="1537.0800000000002" width="28.0" height="26.0" class="combo"/>
<text x="506.0" y="1550.0800000000002" class="combo">+</text>
<rect rx="6.0" ry="6.0" x="548.0" y="1521.4" width="28.0" height="26.0" class="combo"/>
<text x="562.0" y="1534.4" class="combo">*</text>
<rect rx="6.0" ry="6.0" x="604.0" y="1538.76" width="28.0" height="26.0" class="combo"/>
<text x="618.0" y="1551.76" class="combo">&amp;</text>
<rect rx="6.0" ry="6.0" x="100.0" y="1594.7600000000002" width="28.0" height="26.0" class="combo"/>
<text x="114.0" y="1607.7600000000002" class="combo">`</text>
<rect rx="6.0" ry="6.0" x="156.0" y="1577.4" width="28.0" height="26.0" class="combo"/>
<text x="170.0" y="1590.4" class="combo">\</text>
<rect rx="6.0" ry="6.0" x="212.0" y="1593.0800000000002" width="28.0" height="26.0" class="combo"/>
<text x="226.0" y="1606.0800000000002" class="combo">=</text>
<rect rx="6.0" ry="6.0" x="268.0" y="1600.92" width="28.0" height="26.0" class="combo"/>
<text x="282.0" y="1613.92" class="combo">~</text>
<rect rx="6.0" ry="6.0" x="436.0" y="1600.92" width="28.0" height="26.0" class="combo"/>
<text x="450.0" y="1613.92" class="combo">_</text>
<rect rx="6.0" ry="6.0" x="492.0" y="1593.0800000000002" width="28.0" height="26.0" class="combo"/>
<text x="506.0" y="1606.0800000000002" class="combo">-</text>
<rect rx="6.0" ry="6.0" x="548.0" y="1577.4" width="28.0" height="26.0" class="combo"/>
<text x="562.0" y="1590.4" class="combo">/</text>
<rect rx="6.0" ry="6.0" x="604.0" y="1594.7600000000002" width="28.0" height="26.0" class="combo"/>
<text x="618.0" y="1607.7600000000002" class="combo">|</text>
</g>
<g class="layer-util">
<text x="30.0" y="1792.0" class="label">util:</text>
<rect rx="6.0" ry="6.0" x="32.0" y="1874.08" width="52.0" height="52.0" class=""/>
<text x="58.0" y="1900.08" class="tap">
<tspan x="58.0" dy="-0.6em">BT</tspan><tspan x="58.0" dy="1.2em">0</tspan></text>
<rect rx="6.0" ry="6.0" x="88.0" y="1839.36" width="52.0" height="52.0" class=""/>
<text x="114.0" y="1865.36" class="tap">
<tspan x="114.0" dy="-0.6em">BT</tspan><tspan x="114.0" dy="1.2em">1</tspan></text>
<rect rx="6.0" ry="6.0" x="144.0" y="1822.0" width="52.0" height="52.0" class=""/>
<text x="170.0" y="1848.0" class="tap">
<tspan x="170.0" dy="-0.6em">BT</tspan><tspan x="170.0" dy="1.2em">2</tspan></text>
<rect rx="6.0" ry="6.0" x="200.0" y="1837.68" width="52.0" height="52.0" class=""/>
<text x="226.0" y="1863.68" class="tap">
<tspan x="226.0" dy="-0.6em">BT</tspan><tspan x="226.0" dy="1.2em">3</tspan></text>
<rect rx="6.0" ry="6.0" x="256.0" y="1845.52" width="52.0" height="52.0" class=""/>
<text x="282.0" y="1871.52" class="tap">
<tspan x="282.0" dy="-0.6em">BT</tspan><tspan x="282.0" dy="1.2em">CLR</tspan></text>
<rect rx="6.0" ry="6.0" x="424.0" y="1845.52" width="52.0" height="52.0" class=""/>
<rect rx="6.0" ry="6.0" x="480.0" y="1837.68" width="52.0" height="52.0" class=""/>
<rect rx="6.0" ry="6.0" x="536.0" y="1822.0" width="52.0" height="52.0" class=""/>
<rect rx="6.0" ry="6.0" x="592.0" y="1839.36" width="52.0" height="52.0" class=""/>
<rect rx="6.0" ry="6.0" x="648.0" y="1874.08" width="52.0" height="52.0" class=""/>
<rect rx="6.0" ry="6.0" x="32.0" y="1930.08" width="52.0" height="52.0" class=""/>
<rect rx="6.0" ry="6.0" x="88.0" y="1895.36" width="52.0" height="52.0" class=""/>
<rect rx="6.0" ry="6.0" x="144.0" y="1878.0" width="52.0" height="52.0" class=""/>
<rect rx="6.0" ry="6.0" x="200.0" y="1893.68" width="52.0" height="52.0" class=""/>
<rect rx="6.0" ry="6.0" x="256.0" y="1901.52" width="52.0" height="52.0" class=""/>
<text x="282.0" y="1927.52" class="tap">BOOT</text>
<rect rx="6.0" ry="6.0" x="424.0" y="1901.52" width="52.0" height="52.0" class=""/>
<text x="450.0" y="1927.52" class="tap">BOOT</text>
<rect rx="6.0" ry="6.0" x="480.0" y="1893.68" width="52.0" height="52.0" class=""/>
<rect rx="6.0" ry="6.0" x="536.0" y="1878.0" width="52.0" height="52.0" class=""/>
<rect rx="6.0" ry="6.0" x="592.0" y="1895.36" width="52.0" height="52.0" class=""/>
<rect rx="6.0" ry="6.0" x="648.0" y="1930.08" width="52.0" height="52.0" class=""/>
<rect rx="6.0" ry="6.0" x="32.0" y="1986.08" width="52.0" height="52.0" class=""/>
<rect rx="6.0" ry="6.0" x="88.0" y="1951.3600000000001" width="52.0" height="52.0" class=""/>
<rect rx="6.0" ry="6.0" x="144.0" y="1934.0" width="52.0" height="52.0" class=""/>
<rect rx="6.0" ry="6.0" x="200.0" y="1949.68" width="52.0" height="52.0" class=""/>
<rect rx="6.0" ry="6.0" x="256.0" y="1957.52" width="52.0" height="52.0" class=""/>
<text x="282.0" y="1983.52" class="tap">RESET</text>
<rect rx="6.0" ry="6.0" x="424.0" y="1957.52" width="52.0" height="52.0" class=""/>
<text x="450.0" y="1983.52" class="tap">RESET</text>
<rect rx="6.0" ry="6.0" x="480.0" y="1949.68" width="52.0" height="52.0" class=""/>
<rect rx="6.0" ry="6.0" x="536.0" y="1934.0" width="52.0" height="52.0" class=""/>
<rect rx="6.0" ry="6.0" x="592.0" y="1951.3600000000001" width="52.0" height="52.0" class=""/>
<rect rx="6.0" ry="6.0" x="648.0" y="1986.08" width="52.0" height="52.0" class=""/>
<rect rx="6.0" ry="6.0" x="228.0" y="2032.0" width="52.0" height="52.0" class=""/>
<rect rx="6.0" ry="6.0" x="284.0" y="2046.0" width="52.0" height="52.0" class=""/>
<rect rx="6.0" ry="6.0" x="396.0" y="2046.0" width="52.0" height="52.0" class=""/>
<rect rx="6.0" ry="6.0" x="452.0" y="2032.0" width="52.0" height="52.0" class=""/>
</g>
</svg>
